<svg xmlns="http://www.w3.org/2000/svg" width="47" height="53" viewBox="0 0 47 53"><filter filterUnits="objectBoundingBox" x="0" y="0" width="100" height="100" id="a"><feFlood flood-color="#9F9ACE" result="coFloodOut1"/><feComposite in="coFloodOut1" in2="SourceAlpha" operator="in" result="coOverlay1"/><feBlend in="coOverlay1" in2="SourceGraphic" result="colorOverlay1"/></filter><path d="M43.86 33.06c-2.28 3.7-8.18 7.4-15.06 10.27C18.71 46.59.88 52.79.88 52.79V23.87s.56-9.83 2.41-12.85C9.76.48 24.08-3.13 35.28 2.95c11.21 6.09 15.05 19.57 8.58 30.11zM23.94 9.34c-6.37 0-11.54 4.86-11.54 10.86 0 5.99 5.17 10.85 11.54 10.85 6.38 0 11.54-4.86 11.54-10.85 0-6-5.16-10.86-11.54-10.86z" fill="#3AA0EE" filter="url(#a)"/></svg>